<svg width="20" height="21" viewBox="0 0 20 21" fill="none" xmlns="http://www.w3.org/2000/svg">
<g clip-path="url(#clip0_2070_1161)">
<path d="M6.66667 10.5H5C4.08083 10.5 3.33333 11.2475 3.33333 12.1667V13.8333C3.33333 14.7525 4.08083 15.5 5 15.5H6.66667C7.58583 15.5 8.33333 14.7525 8.33333 13.8333V12.1667C8.33333 11.2475 7.58583 10.5 6.66667 10.5ZM5 13.8333V12.1667H6.66667V13.8333H5ZM15.8333 2.16667H15V1.33333C15 0.873333 14.6275 0.5 14.1667 0.5C13.7058 0.5 13.3333 0.873333 13.3333 1.33333V2.16667H6.66667V1.33333C6.66667 0.873333 6.29417 0.5 5.83333 0.5C5.3725 0.5 5 0.873333 5 1.33333V2.16667H4.16667C1.86917 2.16667 0 4.03583 0 6.33333V16.3333C0 18.6308 1.86917 20.5 4.16667 20.5H15.8333C18.1308 20.5 20 18.6308 20 16.3333V6.33333C20 4.03583 18.1308 2.16667 15.8333 2.16667ZM4.16667 3.83333H15.8333C17.2117 3.83333 18.3333 4.955 18.3333 6.33333V7.16667H1.66667V6.33333C1.66667 4.955 2.78833 3.83333 4.16667 3.83333ZM15.8333 18.8333H4.16667C2.78833 18.8333 1.66667 17.7117 1.66667 16.3333V8.83333H18.3333V16.3333C18.3333 17.7117 17.2117 18.8333 15.8333 18.8333Z" fill="black" fill-opacity="0.5"/>
</g>
<defs>
<clipPath id="clip0_2070_1161">
<rect width="20" height="20" fill="white" transform="translate(0 0.5)"/>
</clipPath>
</defs>
</svg>
