<svg xmlns="http://www.w3.org/2000/svg" width="218" height="103" fill="none">
    <path fill="#000"
          d="M6.641 29.562c1.243.381 1.365 1.667 1.585 2.64 1.379 5.82 2.945 11.601 3.95 17.505 2.11 12.152 3.907 24.372 5.885 36.48.157.986.376 1.959.727 2.975 1.022-4.603 1.278-9.254 2.369-13.8.318.003.573.02.89.022.138.772.406 1.588.356 2.401-.472 6.378-1 12.84-1.596 19.245-.218 2.383-1.42 3.087-3.125 1.86-1.297-.954-2.49-2.148-3.558-3.37-2.289-2.703-4.522-5.49-6.755-8.278-1.447-1.868-1.475-2.154-1.553-4.98 4.182 1.918 5.97 6.7 9.48 9.57-.026-.942.093-1.698-.037-2.399-2.865-18.767-5.724-37.463-8.589-56.23-.17-1.13-.784-2.234-.029-3.641ZM64.84 14.045c1.379.81 1.371 2.405 1.51 3.646.91 7.45 2.038 14.902 2.51 22.348 1.017 15.335 1.67 30.667 2.54 45.912.067 1.241.207 2.483.491 3.814 1.7-5.3 2.527-10.873 4.299-16.083.363.092.654.183 1.017.275.068.976.281 2.04.131 3.014a1257.425 1257.425 0 0 1-4.04 22.906c-.524 2.83-1.982 3.348-3.791 1.383-1.375-1.52-2.603-3.302-3.686-5.084-2.309-3.92-4.545-7.927-6.78-11.934-1.443-2.671-1.44-3.025-1.206-6.478 4.567 3.497 6.064 9.8 9.753 14.265.078-1.151.3-2.035.232-2.922-1.121-23.575-2.243-47.061-3.365-70.636-.066-1.418-.64-2.93.386-4.426ZM110.718 1.318c1.32 1.066 1.205 2.865 1.261 4.28.409 8.508 1.035 17.04 1.009 25.495-.012 17.417-.387 34.79-.537 52.09a31 31 0 0 0 .234 4.357c2.048-5.793 3.246-11.992 5.36-17.676.356.143.639.278.996.422.002 1.108.143 2.333-.072 3.415a1540.311 1540.311 0 0 1-5.559 25.405c-.71 3.136-2.198 3.56-3.87 1.143-1.269-1.865-2.374-4.012-3.334-6.142-2.04-4.676-4.001-9.444-5.962-14.212-1.259-3.172-1.234-3.572-.768-7.442 4.318 4.448 5.389 11.726 8.768 17.168.155-1.29.436-2.263.427-3.27.457-26.727.909-53.354 1.367-80.08.029-1.608-.443-3.377.68-4.953ZM160.223 5.662c1.022 1.275.75 2.95.661 4.298-.477 8.114-.771 16.297-1.614 24.273-1.699 16.44-3.704 32.764-5.51 49.064a32.636 32.636 0 0 0-.223 4.162c2.309-5.052 3.932-10.659 6.287-15.594.29.208.518.393.808.602-.105 1.046-.103 2.231-.392 3.209a1458.42 1458.42 0 0 1-7.207 22.849c-.91 2.815-2.22 2.912-3.412.29-.902-2.02-1.636-4.273-2.249-6.479-1.286-4.83-2.497-9.732-3.707-14.633-.766-3.252-.706-3.624.067-7.183 3.252 5.08 3.46 12.17 5.814 17.997.257-1.186.591-2.047.682-3 2.983-25.138 5.951-50.182 8.934-75.32.181-1.51-.05-3.277 1.061-4.535ZM206.998 29.495c.922 1.307.579 2.506.428 3.513-.854 6.08-1.534 12.27-2.733 18.127-2.434 12.083-5.157 23.98-7.688 35.92-.209.97-.361 1.978-.417 3.126 2.468-3.141 4.302-6.929 6.809-9.966.268.252.48.468.748.72-.152.77-.208 1.682-.533 2.34a725.711 725.711 0 0 1-8.046 15.244c-1.013 1.871-2.278 1.527-3.298-.869-.77-1.84-1.367-3.804-1.849-5.695-1.003-4.122-1.93-8.273-2.856-12.424-.579-2.743-.503-3.01.413-5.496 2.883 4.943 2.738 10.454 4.721 15.682.305-.829.668-1.383.801-2.086 4.093-18.353 8.167-36.639 12.259-54.99.248-1.104.111-2.534 1.241-3.146Z"/>
</svg>
